<svg width="266" height="22" viewBox="0 0 266 22" fill="none" xmlns="http://www.w3.org/2000/svg">
<line x1="149" y1="17.4071" x2="266" y2="17.4071" stroke="black" stroke-width="1.18571"/>
<path d="M47.9353 11.4004H48.9815C49.6388 11.3904 50.1557 11.2173 50.532 10.8811C50.9083 10.5449 51.0965 10.0908 51.0965 9.51882C51.0965 8.2343 50.4567 7.59203 49.1772 7.59203C48.5751 7.59203 48.0934 7.76514 47.7321 8.11136C47.3759 8.45256 47.1977 8.90666 47.1977 9.47366H45.8053C45.8053 8.6056 46.1214 7.88557 46.7537 7.31355C47.3909 6.73652 48.1988 6.44801 49.1772 6.44801C50.2109 6.44801 51.0212 6.72147 51.6083 7.26839C52.1953 7.81532 52.4889 8.5755 52.4889 9.54893C52.4889 10.0256 52.3333 10.4872 52.0222 10.9338C51.7162 11.3804 51.2972 11.7141 50.7653 11.9348C51.3674 12.1255 51.8316 12.4416 52.1577 12.8832C52.4889 13.3247 52.6545 13.8641 52.6545 14.5014C52.6545 15.4848 52.3333 16.2651 51.6911 16.8421C51.0488 17.4191 50.2134 17.7077 49.1847 17.7077C48.1561 17.7077 47.3182 17.4292 46.6709 16.8722C46.0286 16.3153 45.7075 15.5802 45.7075 14.667H47.1074C47.1074 15.244 47.2956 15.7056 47.6719 16.0518C48.0482 16.398 48.5525 16.5712 49.1847 16.5712C49.8571 16.5712 50.3714 16.3955 50.7277 16.0443C51.0839 15.6931 51.2621 15.1888 51.2621 14.5315C51.2621 13.8942 51.0664 13.405 50.675 13.0638C50.2836 12.7226 49.7191 12.547 48.9815 12.5369H47.9353V11.4004ZM54.9275 17.5571V6.59854H58.0209C58.9742 6.59854 59.8172 6.80928 60.5498 7.23076C61.2823 7.65225 61.8468 8.25186 62.2432 9.0296C62.6446 9.80734 62.8479 10.7005 62.8529 11.709V12.409C62.8529 13.4426 62.6522 14.3483 62.2508 15.1261C61.8544 15.9038 61.2849 16.5009 60.5422 16.9174C59.8046 17.3338 58.9441 17.5471 57.9606 17.5571H54.9275ZM56.3726 7.78772V16.3755H57.8929C59.0068 16.3755 59.8724 16.0292 60.4896 15.3368C61.1117 14.6444 61.4228 13.6584 61.4228 12.3789V11.7391C61.4228 10.4948 61.1293 9.52886 60.5422 8.84143C59.9602 8.149 59.1323 7.79776 58.0585 7.78772H56.3726ZM70.417 17.5571H68.9719V6.59854H70.417V17.5571ZM74.1652 9.41345L74.2104 10.4371C74.8326 9.6543 75.6454 9.26292 76.649 9.26292C78.37 9.26292 79.2381 10.2338 79.2531 12.1757V17.5571H77.8607V12.1682C77.8557 11.5811 77.7202 11.1471 77.4543 10.8661C77.1934 10.5851 76.7844 10.4446 76.2275 10.4446C75.7759 10.4446 75.3795 10.565 75.0383 10.8059C74.6971 11.0467 74.4312 11.3628 74.2405 11.7542V17.5571H72.8481V9.41345H74.1652ZM83.2422 7.4415V9.41345H84.7625V10.4897H83.2422V15.54C83.2422 15.8662 83.3099 16.112 83.4454 16.2776C83.5809 16.4382 83.8117 16.5185 84.1378 16.5185C84.2984 16.5185 84.5192 16.4884 84.8002 16.4282V17.5571C84.4339 17.6575 84.0776 17.7077 83.7314 17.7077C83.1092 17.7077 82.6401 17.5195 82.3239 17.1432C82.0078 16.7668 81.8498 16.2325 81.8498 15.54V10.4897H80.3671V9.41345H81.8498V7.4415H83.2422ZM89.7752 17.7077C88.6713 17.7077 87.7731 17.3464 87.0807 16.6238C86.3883 15.8963 86.042 14.9254 86.042 13.7111V13.4552C86.042 12.6473 86.1951 11.9273 86.5012 11.2951C86.8123 10.6578 87.2438 10.1611 87.7957 9.80483C88.3527 9.44355 88.9548 9.26292 89.6021 9.26292C90.6608 9.26292 91.4837 9.61165 92.0708 10.3091C92.6578 11.0066 92.9514 12.0051 92.9514 13.3047V13.8842H87.4344C87.4545 14.687 87.6878 15.3368 88.1344 15.8336C88.586 16.3253 89.158 16.5712 89.8505 16.5712C90.3422 16.5712 90.7587 16.4708 91.0999 16.2701C91.4411 16.0694 91.7396 15.8035 91.9955 15.4723L92.846 16.1346C92.1636 17.1833 91.14 17.7077 89.7752 17.7077ZM89.6021 10.4069C89.0401 10.4069 88.5684 10.6127 88.1871 11.0241C87.8058 11.4306 87.5699 12.0026 87.4796 12.7402H91.559V12.6348C91.5188 11.9273 91.3282 11.3804 90.987 10.994C90.6458 10.6026 90.1841 10.4069 89.6021 10.4069ZM98.5059 10.6628C98.2952 10.6277 98.0669 10.6102 97.821 10.6102C96.9078 10.6102 96.2881 10.999 95.962 11.7768V17.5571H94.5696V9.41345H95.9243L95.9469 10.3543C96.4035 9.6267 97.0508 9.26292 97.8888 9.26292C98.1597 9.26292 98.3654 9.29804 98.5059 9.36829V10.6628ZM104.52 17.5571C104.439 17.3966 104.374 17.1106 104.324 16.6991C103.677 17.3715 102.904 17.7077 102.006 17.7077C101.203 17.7077 100.543 17.4819 100.026 17.0303C99.5145 16.5737 99.2586 15.9966 99.2586 15.2992C99.2586 14.4512 99.5797 13.7939 100.222 13.3272C100.869 12.8556 101.777 12.6197 102.947 12.6197H104.301V11.98C104.301 11.4933 104.156 11.1069 103.865 10.8209C103.574 10.5299 103.145 10.3844 102.578 10.3844C102.081 10.3844 101.665 10.5098 101.328 10.7607C100.992 11.0116 100.824 11.3151 100.824 11.6714H99.4242C99.4242 11.265 99.5672 10.8736 99.8532 10.4973C100.144 10.1159 100.536 9.81486 101.027 9.59408C101.524 9.37331 102.068 9.26292 102.661 9.26292C103.599 9.26292 104.334 9.49875 104.866 9.97041C105.398 10.4371 105.674 11.0818 105.694 11.9047V15.6529C105.694 16.4006 105.789 16.9951 105.98 17.4367V17.5571H104.52ZM102.209 16.4959C102.646 16.4959 103.059 16.383 103.451 16.1572C103.842 15.9314 104.126 15.6379 104.301 15.2766V13.6057H103.21C101.504 13.6057 100.651 14.105 100.651 15.1035C100.651 15.54 100.797 15.8812 101.088 16.1271C101.379 16.373 101.752 16.4959 102.209 16.4959ZM111.143 16.5712C111.64 16.5712 112.074 16.4206 112.445 16.1196C112.816 15.8185 113.022 15.4422 113.062 14.9906H114.379C114.354 15.4572 114.194 15.9013 113.898 16.3228C113.602 16.7443 113.205 17.0805 112.708 17.3313C112.217 17.5822 111.695 17.7077 111.143 17.7077C110.034 17.7077 109.151 17.3389 108.494 16.6013C107.841 15.8586 107.515 14.8451 107.515 13.5606V13.3272C107.515 12.5344 107.661 11.8295 107.952 11.2123C108.243 10.5951 108.659 10.1159 109.201 9.77472C109.748 9.43352 110.393 9.26292 111.135 9.26292C112.049 9.26292 112.806 9.53638 113.408 10.0833C114.016 10.6302 114.339 11.3402 114.379 12.2133H113.062C113.022 11.6865 112.821 11.2549 112.46 10.9188C112.104 10.5775 111.662 10.4069 111.135 10.4069C110.428 10.4069 109.878 10.6628 109.487 11.1747C109.101 11.6814 108.908 12.4165 108.908 13.3799V13.6433C108.908 14.5816 109.101 15.3042 109.487 15.811C109.873 16.3178 110.425 16.5712 111.143 16.5712ZM117.834 7.4415V9.41345H119.354V10.4897H117.834V15.54C117.834 15.8662 117.902 16.112 118.037 16.2776C118.173 16.4382 118.404 16.5185 118.73 16.5185C118.89 16.5185 119.111 16.4884 119.392 16.4282V17.5571C119.026 17.6575 118.669 17.7077 118.323 17.7077C117.701 17.7077 117.232 17.5195 116.916 17.1432C116.6 16.7668 116.442 16.2325 116.442 15.54V10.4897H114.959V9.41345H116.442V7.4415H117.834ZM122.5 17.5571H121.108V9.41345H122.5V17.5571ZM120.995 7.25334C120.995 7.02755 121.063 6.83687 121.198 6.68133C121.339 6.52578 121.545 6.44801 121.816 6.44801C122.086 6.44801 122.292 6.52578 122.433 6.68133C122.573 6.83687 122.643 7.02755 122.643 7.25334C122.643 7.47914 122.573 7.6673 122.433 7.81783C122.292 7.96836 122.086 8.04362 121.816 8.04362C121.545 8.04362 121.339 7.96836 121.198 7.81783C121.063 7.6673 120.995 7.47914 120.995 7.25334ZM127.423 15.668L129.44 9.41345H130.862L127.942 17.5571H126.881L123.93 9.41345H125.353L127.423 15.668ZM135.476 17.7077C134.372 17.7077 133.474 17.3464 132.782 16.6238C132.089 15.8963 131.743 14.9254 131.743 13.7111V13.4552C131.743 12.6473 131.896 11.9273 132.202 11.2951C132.513 10.6578 132.945 10.1611 133.497 9.80483C134.054 9.44355 134.656 9.26292 135.303 9.26292C136.362 9.26292 137.185 9.61165 137.772 10.3091C138.359 11.0066 138.652 12.0051 138.652 13.3047V13.8842H133.135C133.155 14.687 133.389 15.3368 133.835 15.8336C134.287 16.3253 134.859 16.5712 135.551 16.5712C136.043 16.5712 136.46 16.4708 136.801 16.2701C137.142 16.0694 137.441 15.8035 137.696 15.4723L138.547 16.1346C137.865 17.1833 136.841 17.7077 135.476 17.7077ZM135.303 10.4069C134.741 10.4069 134.269 10.6127 133.888 11.0241C133.507 11.4306 133.271 12.0026 133.181 12.7402H137.26V12.6348C137.22 11.9273 137.029 11.3804 136.688 10.994C136.347 10.6026 135.885 10.4069 135.303 10.4069Z" fill="black"/>
<path d="M16.6 0C8.3 0 0 1.95272 0 5.7433V12.6353C0 16.1961 7.58857 18.1488 15.4143 18.3786V20.6759C15.4143 21.1354 15.6514 21.5948 16.1257 21.7097C16.2443 21.8246 16.4814 21.8246 16.6 21.8246C16.9557 21.8246 17.1929 21.7097 17.43 21.48L24.5443 14.588C25.0186 14.1285 25.0186 13.4393 24.5443 12.9799L17.43 6.0879C17.0743 5.7433 16.6 5.62844 16.1257 5.85817C15.6514 5.97304 15.4143 6.4325 15.4143 6.89196V9.18929C7.23286 8.95955 2.37143 6.89196 2.37143 5.7433C2.37143 4.47978 7.82571 2.29732 16.6 2.29732C25.3743 2.29732 30.8286 4.47978 30.8286 5.7433C30.8286 6.4325 31.3029 6.89196 32.0143 6.89196C32.7257 6.89196 33.2 6.4325 33.2 5.7433C33.2 1.95272 24.9 0 16.6 0Z" fill="black"/>
</svg>
